<svg xmlns="http://www.w3.org/2000/svg" viewBox="0 0 32 24" shape-rendering="crispEdges">
  <rect width="32" height="24" fill="none"/>
  <rect x="8" y="8" width="16" height="12" fill="#f4d445"/>
  <rect x="10" y="6" width="4" height="4" fill="#f4d445"/>
  <rect x="18" y="6" width="4" height="4" fill="#f4d445"/>
  <rect x="10" y="4" width="2" height="2" fill="#2b2b2b"/>
  <rect x="20" y="4" width="2" height="2" fill="#2b2b2b"/>
  <rect x="12" y="12" width="2" height="2" fill="#232323"/>
  <rect x="18" y="12" width="2" height="2" fill="#232323"/>
  <rect x="12" y="12" width="1" height="1" fill="#ffffff"/>
  <rect x="18" y="12" width="1" height="1" fill="#ffffff"/>
  <rect x="15" y="14" width="2" height="2" fill="#b45f2b"/>
  <rect x="24" y="11" width="5" height="3" fill="#f4d445"/>
  <rect x="26" y="10" width="4" height="2" fill="#f4d445"/>
  <rect x="7" y="20" width="5" height="2" fill="#b88c34"/>
  <rect x="21" y="18" width="4" height="4" fill="#b88c34"/>
  <rect x="9" y="14" width="2" height="2" fill="#d14141"/>
  <rect x="21" y="14" width="2" height="2" fill="#d14141"/>
</svg>
