<?xml version="1.0" encoding="utf-8"?>
<!-- Generator: Adobe Illustrator 22.0.0, SVG Export Plug-In . SVG Version: 6.00 Build 0)  -->
<svg version="1.1" id="Layer_1" shape-rendering="crispEdges"
	 xmlns="http://www.w3.org/2000/svg" xmlns:xlink="http://www.w3.org/1999/xlink" x="0px" y="0px" viewBox="0 0 32 24"
	 style="enable-background:new 0 0 32 24;" xml:space="preserve">
<style type="text/css">
	.st0{fill:none;}
	.st1{fill:#F4D445;}
	.st2{fill:#2B2B2B;}
	.st3{fill:#232323;}
	.st4{fill:#B45F2B;}
	.st5{fill:#B88C34;}
	.st6{fill:#D14141;}
	.st7{fill:#FFFFFF;}
</style>
<rect class="st0" width="32" height="24"/>
<rect x="8" y="8" class="st1" width="16" height="12"/>
<rect x="8" y="4.8" class="st1" width="4" height="4"/>
<rect x="20" y="5" class="st1" width="4" height="4"/>
<rect x="8" y="2.8" class="st2" width="2" height="2"/>
<rect x="22" y="3" class="st2" width="2" height="2"/>
<path class="st3" d="M13.2,12.1L13.2,12.1c0.5,0,0.9,0.4,0.9,0.9v0c0,0.5-0.4,0.9-0.9,0.9h0c-0.5,0-0.9-0.4-0.9-0.9v0
	C12.3,12.5,12.7,12.1,13.2,12.1z"/>
<path class="st3" d="M18.8,12.1L18.8,12.1c0.5,0,0.9,0.4,0.9,0.9v0c0,0.5-0.4,0.9-0.9,0.9l0,0c-0.5,0-0.9-0.4-0.9-0.9v0
	C17.9,12.5,18.3,12.1,18.8,12.1z"/>
<path class="st4" d="M15.8,15.7L15.8,15.7c0.6,0,1,0.4,1,1v0c0,0.6-0.4,1-1,1h0c-0.6,0-1-0.4-1-1v0C14.8,16.1,15.2,15.7,15.8,15.7z"
	/>
<rect x="24" y="12" class="st1" width="4" height="3"/>
<rect x="26" y="11" class="st1" width="4" height="2"/>
<rect x="8" y="19" class="st5" width="4" height="3"/>
<rect x="20" y="19" class="st5" width="4" height="3"/>
<path class="st6" d="M21.5,14L21.5,14c0.6,0,1,0.5,1,1v0.2c0,0.6-0.5,1-1,1h0c-0.6,0-1-0.5-1-1v-0.2C20.5,14.5,20.9,14,21.5,14z"/>
<path class="st6" d="M10.5,14L10.5,14c0.6,0,1,0.5,1,1v0.2c0,0.6-0.5,1-1,1h0c-0.6,0-1-0.5-1-1v-0.2C9.5,14.5,10,14,10.5,14z"/>
<path class="st7" d="M12.9,12.3L12.9,12.3c0.3,0,0.5,0.2,0.5,0.5v0c0,0.3-0.2,0.5-0.5,0.5h0c-0.3,0-0.5-0.2-0.5-0.5v0
	C12.5,12.5,12.7,12.3,12.9,12.3z"/>
<path class="st7" d="M18.7,12.3L18.7,12.3c0.3,0,0.5,0.2,0.5,0.5v0c0,0.3-0.2,0.5-0.5,0.5l0,0c-0.3,0-0.5-0.2-0.5-0.5v0
	C18.2,12.5,18.4,12.3,18.7,12.3z"/>
<path class="st3" d="M15.8,14.1L15.8,14.1c0.2,0,0.3,0.1,0.3,0.3l0,0c0,0.2-0.1,0.3-0.3,0.3h0c-0.2,0-0.3-0.1-0.3-0.3l0,0
	C15.5,14.3,15.6,14.1,15.8,14.1z"/>
</svg>
