<svg xmlns="http://www.w3.org/2000/svg" viewBox="0 0 84 30" shape-rendering="crispEdges">
  <rect width="84" height="30" fill="none"/>
  <rect x="6" y="12" width="48" height="8" fill="#e3edf5"/>
  <rect x="50" y="14" width="20" height="4" fill="#e3edf5"/>
  <rect x="4" y="14" width="8" height="4" fill="#e3edf5"/>
  <rect x="24" y="6" width="16" height="6" fill="#5a97c7"/>
  <rect x="16" y="20" width="28" height="6" fill="#5a97c7"/>
  <rect x="56" y="10" width="10" height="3" fill="#ff8f57"/>
  <rect x="56" y="19" width="10" height="3" fill="#ff8f57"/>
  <rect x="7" y="13" width="3" height="6" fill="#5a97c7"/>
  <rect x="31" y="13" width="9" height="3" fill="#1e4159"/>
  <rect x="33" y="9" width="10" height="8" fill="#ba8f5a"/>
  <rect x="35" y="7" width="3" height="3" fill="#8a6035"/>
  <rect x="40" y="7" width="3" height="3" fill="#8a6035"/>
  <rect x="37" y="11" width="1" height="1" fill="#20180f"/>
  <rect x="40" y="11" width="1" height="1" fill="#20180f"/>
  <rect x="38" y="13" width="2" height="1" fill="#f4dbc5"/>
  <rect x="39" y="14" width="1" height="2" fill="#ff6a88"/>
</svg>
